<?xml version="1.0" encoding="utf-8"?>
<!-- Uploaded to: SVG Repo, www.svgrepo.com, Generator: SVG Repo Mixer Tools -->
<svg width="800px" height="800px" viewBox="0 -5.53 53.787 53.787" xmlns="http://www.w3.org/2000/svg">
  <g id="piggy_bank" data-name="piggy bank" transform="translate(-415.171 -37.576)">
    <path id="Path_18" data-name="Path 18" d="M446.914,74.327a28.184,28.184,0,0,1-9.649,0V79.8h-7.238V71.9a18.01,18.01,0,0,1-8.747-9.214h-5.609V53.034h5.609a16.557,16.557,0,0,1,5.182-6.891l-.715-8.067,5.026,5.373A25.618,25.618,0,0,1,438.51,41.2h0a25.224,25.224,0,0,1,8.4.187h0c8.354,1.478,14.882,6.706,16.5,13.283h1.52a3.527,3.527,0,0,1,3.526,3.528v.006a3.525,3.525,0,0,1-3.526,3.526h-1.709c-1.273,4.216-4.583,7.825-9.072,10.166v7.9h-7.237v-5.47Z" fill="#e23a44" fill-rule="evenodd"/>
    <path id="Path_19" data-name="Path 19" d="M442.065,49.005a8.8,8.8,0,1,1-8.8,8.8,8.8,8.8,0,0,1,8.8-8.8Z" fill="#f2f7fd" fill-rule="evenodd"/>
    <path id="Path_20" data-name="Path 20" d="M442.065,49.005a8.8,8.8,0,1,1-8.8,8.8,8.8,8.8,0,0,1,8.8-8.8Zm0,13.2v1.1m0-11v1.1m-2.2,6.6a2.2,2.2,0,1,0,2.2-2.2m2.2-2.2a2.2,2.2,0,1,0-2.2,2.2m17.6-9.86a15.2,15.2,0,0,1,3.752,6.731h1.52a3.527,3.527,0,0,1,3.526,3.528v.006a3.525,3.525,0,0,1-3.526,3.526h-1.709c-1.273,4.216-4.583,7.825-9.072,10.166v7.9h-7.237v-5.47a28.184,28.184,0,0,1-9.649,0V79.8h-7.238V71.9a18.01,18.01,0,0,1-8.747-9.214h-5.609V53.034h5.609a16.557,16.557,0,0,1,5.182-6.891l-.715-8.067,5.026,5.373A25.618,25.618,0,0,1,438.51,41.2h0a25.224,25.224,0,0,1,8.4.187h0a25.509,25.509,0,0,1,6.267,1.953m2.881,1.6c.391.253.772.524,1.139.8" fill="none" stroke="#0f0e0b" stroke-linecap="round" stroke-linejoin="round" stroke-width="1"/>
  </g>
</svg>